<?xml version="1.0" standalone="no"?><!DOCTYPE svg PUBLIC "-//W3C//DTD SVG 1.1//EN" "http://www.w3.org/Graphics/SVG/1.1/DTD/svg11.dtd"><svg t="1535512459463" class="icon" style="" viewBox="0 0 1024 1024" version="1.1" xmlns="http://www.w3.org/2000/svg" p-id="5596" xmlns:xlink="http://www.w3.org/1999/xlink" width="64" height="64"><defs><style type="text/css"></style></defs><path d="M511.6 63.9c-247.3 0-447.7 200.5-447.7 447.7s200.5 447.7 447.7 447.7c247.3 0 447.7-200.5 447.7-447.7S758.9 63.9 511.6 63.9z m175.6 587.2c10 10 10 26.2 0 36.2-5 5-11.5 7.5-18.1 7.5-6.5 0-13.1-2.5-18.1-7.5L511.6 547.8 372.2 687.2c-5 5-11.5 7.5-18.1 7.5s-13.1-2.5-18.1-7.5c-10-10-10-26.2 0-36.2l139.4-139.4L336 372.2c-10-10-10-26.2 0-36.2 10-10 26.2-10 36.2 0l139.4 139.4L651 336c10-10 26.2-10 36.2 0 10 10 10 26.2 0 36.2L547.8 511.6l139.4 139.5z" p-id="5597" fill="#e6e6e6"></path></svg>