<?xml version="1.0" standalone="no"?><!DOCTYPE svg PUBLIC "-//W3C//DTD SVG 1.1//EN" "http://www.w3.org/Graphics/SVG/1.1/DTD/svg11.dtd"><svg t="1535702057930" class="icon" style="" viewBox="0 0 1024 1024" version="1.1" xmlns="http://www.w3.org/2000/svg" p-id="4089" xmlns:xlink="http://www.w3.org/1999/xlink" width="64" height="64"><defs><style type="text/css"></style></defs><path d="M712.192 326.656L478.72 562.688 375.808 456.704c-12.288-12.8-32.768-13.312-45.056-1.024-12.8 12.288-12.8 32.768-0.512 45.056l125.44 130.048h0.512c2.048 2.048 4.608 3.072 6.656 4.608 1.024 0.512 2.048 2.048 3.584 2.048 4.096 1.536 8.192 2.56 12.288 2.56s8.192-1.024 11.776-2.56c1.024-0.512 2.048-1.536 3.584-2.048 2.56-1.536 5.12-2.56 7.168-4.608h0.512l256-259.072c12.288-12.8 12.288-32.768 0-45.056-12.8-12.8-33.28-12.288-45.568 0z" fill="#ffffff" p-id="4090"></path><path d="M889.344 312.832c-0.512-41.472-1.024-86.528-1.024-136.192 0-12.288-8.192-23.04-19.968-26.624-114.176-34.304-216.576-54.272-352.256-69.632h-4.608c-69.12 3.584-133.12 12.288-191.488 25.6-58.368 13.312-114.176 28.16-165.888 44.032-11.776 3.584-19.968 14.336-19.968 26.624 0 44.544-0.512 85.504-1.024 123.904-3.584 323.584-5.12 444.416 312.32 620.032 26.112 14.336 46.08 20.48 67.072 20.48 20.48 0 40.96-6.144 66.56-19.968 316.416-171.008 314.88-272.384 310.272-608.256zM552.448 871.424c-16.896 9.216-29.184 13.312-39.936 13.312-10.752 0-22.528-4.096-39.936-13.824C184.832 711.68 185.856 624.64 189.44 301.056c0.512-32.256 0.512-66.56 1.024-103.424 44.544-13.312 92.16-25.6 141.824-36.864C386.56 148.48 446.976 140.288 512 136.704c123.392 13.824 217.6 31.744 320 61.44 0 41.472 0.512 79.872 1.024 115.712 4.608 325.632 5.632 402.944-280.576 557.568z" fill="#ffffff" p-id="4091"></path></svg>