<?xml version="1.0" standalone="no"?><!DOCTYPE svg PUBLIC "-//W3C//DTD SVG 1.1//EN" "http://www.w3.org/Graphics/SVG/1.1/DTD/svg11.dtd"><svg t="1535701980276" class="icon" style="" viewBox="0 0 1024 1024" version="1.1" xmlns="http://www.w3.org/2000/svg" p-id="3193" xmlns:xlink="http://www.w3.org/1999/xlink" width="64" height="64"><defs><style type="text/css"></style></defs><path d="M508.8 530.4c19.5 0 35.5 16 35.5 35.5v106.4c0 19.5-16 35.5-35.5 35.5s-35.5-16-35.5-35.5V565.1c0-18.3 15.2-34.7 35.5-34.7z" fill="#ffffff" p-id="3194"></path><path d="M792.2 441.5v319.6c0 19.1-16 34.7-35.5 34.7H260.5c-19.5 0-35.5-15.6-35.5-34.7V441.5h567.2m0-53h-566c-30 0-54.2 24.2-54.2 54.2v318.5c0 48.7 39.8 88.1 88.5 88.1h496.2c49.1 0 88.5-39.4 88.5-88.1V441.5c0.4-29.2-23.4-53-53-53z m-17.6 0h-53v-53c0-119.7-99.8-212.4-212.4-212.4-115.8 0-212.4 97.1-212.4 212.4v53h-53v-53c0-145 120.8-265.8 265.8-265.8 143.1 0 265.8 115.8 265.8 265.8l-0.8 53z" fill="#ffffff" p-id="3195"></path></svg>