<?xml version="1.0" standalone="no"?><!DOCTYPE svg PUBLIC "-//W3C//DTD SVG 1.1//EN" "http://www.w3.org/Graphics/SVG/1.1/DTD/svg11.dtd"><svg t="1535701868511" class="icon" style="" viewBox="0 0 1024 1024" version="1.1" xmlns="http://www.w3.org/2000/svg" p-id="2457" xmlns:xlink="http://www.w3.org/1999/xlink" width="64" height="64"><defs><style type="text/css"></style></defs><path d="M920.679 935.526c0 20.392-16.519 36.91-36.893 36.91-20.392 0-36.91-16.519-36.91-36.91l-0.331-3.427c0-1.457 0.264-2.863 0.413-4.303-23.040-161.992-161.926-281.032-331.034-282.902-1.357 0.033-2.648 0.216-4.022 0.216-1.341 0-2.632-0.182-3.972-0.216-167.172 1.853-304.733 118.262-330.091 277.44 0.844 3.128 1.44 6.356 1.44 9.749l0.348 3.476c0 20.707-16.783 37.49-37.473 37.49s-37.49-16.783-37.49-37.49l-0.033-0.331h-0.712c0.099-1.092 0.314-2.136 0.43-3.211 0-3.096 0.497-6.024 1.192-8.904 19.217-149.347 119.288-270.091 255.492-322.097-79.299-50.813-131.007-140.59-131.007-243.161 0-158.648 123.261-287.256 281.909-287.256 158.632 0 281.909 128.607 281.909 287.256 0 102.538-51.658 192.298-130.924 243.112 135.261 51.592 234.886 170.93 255.178 318.787 1.373 3.873 2.284 7.994 2.284 12.348l0.298 3.427zM729.027 357.937c0-119.95-97.224-217.176-217.176-217.176s-217.176 97.241-217.176 217.176c0 119.933 97.241 217.159 217.176 217.159s217.176-97.224 217.176-217.159z" p-id="2458" fill="#ffffff"></path></svg>